HIERARCHY
ROOT joint_Root
{
	OFFSET 0.0 0.0 0.0
	CHANNELS 6 Xposition Yposition Zposition Zrotation Xrotation Yrotation 
	JOINT Hips
	{
		OFFSET -0.726466 93.3139 -2.00062
		CHANNELS 6 Xposition Yposition Zposition Zrotation Xrotation Yrotation 
		JOINT Spine
		{
			OFFSET 15.7357 0.0 0.0
			CHANNELS 6 Xposition Yposition Zposition Zrotation Xrotation Yrotation 
			JOINT Chest
			{
				OFFSET 8.98455 -0.406207 0.0
				CHANNELS 6 Xposition Yposition Zposition Zrotation Xrotation Yrotation 
				JOINT Neck
				{
					OFFSET 16.3773 0.0 0.0
					CHANNELS 6 Xposition Yposition Zposition Zrotation Xrotation Yrotation 
					JOINT Head
					{
						OFFSET 6.45672 0.0 0.0
						CHANNELS 6 Xposition Yposition Zposition Zrotation Xrotation Yrotation 
						End Site
						{
							OFFSET 0.0 0.0 0.0
						}
					}
				}
				JOINT Shoulder_L
				{
					OFFSET 12.9942 -0.242716 4.98039
					CHANNELS 6 Xposition Yposition Zposition Zrotation Xrotation Yrotation 
					JOINT UpperArm_L
					{
						OFFSET 5.34809 0.0 0.0
						CHANNELS 6 Xposition Yposition Zposition Zrotation Xrotation Yrotation 
						JOINT LowerArm_L
						{
							OFFSET 24.3286 1.87007e-05 0.0
							CHANNELS 6 Xposition Yposition Zposition Zrotation Xrotation Yrotation 
							JOINT Hand_L
							{
								OFFSET 22.2916 0.0 0.0
								CHANNELS 6 Xposition Yposition Zposition Zrotation Xrotation Yrotation 
								End Site
								{
									OFFSET 0.0 0.0 0.0
								}
							}
						}
					}
				}
				JOINT Shoulder_R
				{
					OFFSET 12.9945 -0.242716 -4.98039
					CHANNELS 6 Xposition Yposition Zposition Zrotation Xrotation Yrotation 
					JOINT UpperArm_R
					{
						OFFSET -5.34813 0.0 0.0
						CHANNELS 6 Xposition Yposition Zposition Zrotation Xrotation Yrotation 
						JOINT LowerArm_R
						{
							OFFSET -24.3289 0.000322201 0.0
							CHANNELS 6 Xposition Yposition Zposition Zrotation Xrotation Yrotation 
							JOINT Hand_R
							{
								OFFSET -22.2915 -0.000108084 0.0
								CHANNELS 6 Xposition Yposition Zposition Zrotation Xrotation Yrotation 
								End Site
								{
									OFFSET 0.0 0.0 0.0
								}
							}
						}
					}
				}
			}
		}
		JOINT UpperLeg_L
		{
			OFFSET -2.19248 -6.46944 0.0
			CHANNELS 6 Xposition Yposition Zposition Zrotation Xrotation Yrotation 
			JOINT LowerLeg_L
			{
				OFFSET 39.0811 0.0 -1.23785e-05
				CHANNELS 6 Xposition Yposition Zposition Zrotation Xrotation Yrotation 
				JOINT Foot_L
				{
					OFFSET 40.9854 0.0 -1.26872e-05
					CHANNELS 6 Xposition Yposition Zposition Zrotation Xrotation Yrotation 
					JOINT Toes_L
					{
						OFFSET 11.7543 0.0 0.0
						CHANNELS 6 Xposition Yposition Zposition Zrotation Xrotation Yrotation 
						End Site
						{
							OFFSET 0.0 0.0 0.0
						}
					}
				}
			}
		}
		JOINT UpperLeg_R
		{
			OFFSET -2.19251 6.46944 0.0
			CHANNELS 6 Xposition Yposition Zposition Zrotation Xrotation Yrotation 
			JOINT LowerLeg_R
			{
				OFFSET -39.0811 -0.00228153 -0.0401928
				CHANNELS 6 Xposition Yposition Zposition Zrotation Xrotation Yrotation 
				JOINT Foot_R
				{
					OFFSET -40.9854 0.0 0.0
					CHANNELS 6 Xposition Yposition Zposition Zrotation Xrotation Yrotation 
					JOINT Toes_R
					{
						OFFSET -11.7543 0.0 0.0
						CHANNELS 6 Xposition Yposition Zposition Zrotation Xrotation Yrotation 
						End Site
						{
							OFFSET 0.0 0.0 0.0
						}
					}
				}
			}
		}
	}
}
MOTION
Frames:	8
Frame Time:	0.0333333
0.000000 0.000000 0.000000 0.000000 0.000000 -0.000000 -0.166259 91.728300 -3.366310 87.422900 -3.109270 5.618860 15.735700 0.000005 -0.000001 85.358600 82.023100 -84.805700 8.984550 -0.406207 -0.000000 8.143470 -1.283450 1.196100 16.377300 -0.000001 -0.000001 3.901830 -0.609353 0.755711 6.456720 -0.000001 -0.000000 -0.663650 0.840453 -2.155380 12.994200 -0.242716 4.980390 -90.171800 0.574193 -73.340000 5.348090 -0.000007 -0.000001 -62.558900 36.591800 -17.740600 24.328600 0.000019 0.000005 3.615060 5.162770 -35.072300 22.291600 -0.000001 0.000005 6.431760 5.667280 -16.978500 12.994500 -0.242716 -4.980390 88.337000 5.372330 -72.771700 -5.348130 -0.000001 -0.000004 -54.976400 34.311300 -21.765700 -24.328900 0.000322 -0.000009 -0.531342 -0.795457 -33.688600 -22.291500 -0.000108 -0.000004 9.143720 5.666390 -16.856000 -2.192480 -6.469440 -0.000000 -170.256000 -17.916500 -4.774160 39.081100 -0.000007 -0.000012 -0.158417 0.309518 27.104400 40.985400 -0.000006 -0.000013 -4.611350 -1.534910 -64.990900 11.754300 -0.000000 0.000003 -0.000059 -0.000650 -16.602700 -2.192510 6.469440 -0.000001 175.598000 22.156100 176.294000 -39.081100 -0.002282 -0.040193 0.047152 -0.094332 24.926000 -40.985400 0.000008 0.000006 0.815550 3.509130 -63.669000 -11.754300 -0.000006 -0.000006 -0.005421 -0.065486 -19.237900
0.000000 0.000000 0.000000 0.000000 0.000000 -0.000000 -0.148932 91.713800 -3.380420 87.421300 -3.297840 5.701010 15.735700 0.000005 -0.000001 85.249600 81.996000 -84.671500 8.984550 -0.406207 -0.000000 8.195560 -1.317620 1.249600 16.377300 -0.000001 -0.000001 4.040100 -0.623083 0.710508 6.456720 -0.000001 -0.000000 -0.760970 0.889050 -2.232540 12.994200 -0.242716 4.980390 -90.216400 0.726126 -73.408000 5.348090 -0.000007 -0.000001 -60.671600 36.885300 -18.803200 24.328600 0.000019 0.000005 3.797130 5.186100 -36.287400 22.291600 -0.000001 0.000005 6.444940 5.669120 -17.245100 12.994500 -0.242716 -4.980390 88.441300 5.045800 -72.809100 -5.348130 -0.000001 -0.000004 -54.851100 35.203300 -21.783800 -24.328900 0.000322 -0.000009 -0.541555 -0.792394 -34.297700 -22.291500 -0.000108 -0.000004 9.158190 5.666430 -16.861100 -2.192480 -6.469440 -0.000000 -170.236000 -17.932200 -4.711060 39.081100 -0.000007 -0.000012 -0.156768 0.305064 27.198100 40.985400 -0.000006 -0.000013 -4.639170 -1.679680 -65.052700 11.754300 -0.000000 0.000003 -0.000071 -0.000768 -16.607200 -2.192510 6.469440 -0.000001 175.584000 22.035400 176.305000 -39.081100 -0.002282 -0.040193 0.047774 -0.095321 25.006700 -40.985400 0.000008 0.000006 0.850807 3.554530 -63.708400 -11.754300 -0.000006 -0.000006 -0.005363 -0.064937 -19.215500
0.000000 0.000000 0.000000 0.000000 0.000000 -0.000000 -0.138142 91.706500 -3.366590 87.436300 -3.497150 5.842070 15.735700 0.000005 -0.000001 85.283700 81.967200 -84.671000 8.984550 -0.406207 -0.000000 8.254050 -1.312370 1.318950 16.377300 -0.000001 -0.000001 4.239500 -0.581952 0.636803 6.456720 -0.000001 -0.000000 -0.792678 0.983866 -2.354900 12.994200 -0.242716 4.980390 -90.210800 0.706300 -73.382300 5.348090 -0.000007 -0.000001 -58.016000 36.146800 -20.466100 24.328600 0.000019 0.000005 4.707600 5.980910 -38.319000 22.291600 -0.000001 0.000005 6.692360 5.672340 -17.762400 12.994500 -0.242716 -4.980390 88.609100 4.495390 -72.788100 -5.348130 -0.000001 -0.000004 -54.425000 36.829900 -21.699200 -24.328900 0.000322 -0.000009 -0.621488 -0.864382 -35.670400 -22.291500 -0.000108 -0.000004 9.564410 5.665840 -16.781400 -2.192480 -6.469440 -0.000000 -170.181000 -17.972300 -4.500100 39.081100 -0.000007 -0.000012 -0.163638 0.318281 27.209400 40.985400 -0.000006 -0.000013 -4.683260 -1.803770 -65.107400 11.754300 -0.000000 0.000003 -0.000060 -0.000665 -16.603300 -2.192510 6.469440 -0.000001 175.523000 21.814600 176.405000 -39.081100 -0.002282 -0.040193 0.047964 -0.095427 25.075600 -40.985400 0.000008 0.000006 0.890957 3.589030 -63.730800 -11.754300 -0.000006 -0.000006 -0.005483 -0.066062 -19.261400
0.000000 0.000000 0.000000 0.000000 0.000000 -0.000000 -0.167364 91.689700 -3.377410 87.391800 -3.525320 5.932690 15.735700 0.000005 -0.000001 85.238600 82.008500 -84.551200 8.984550 -0.406207 -0.000000 8.171800 -1.318390 1.467680 16.377300 -0.000001 -0.000001 4.632370 -0.511190 0.452631 6.456720 -0.000001 -0.000000 -0.711447 0.988445 -2.413810 12.994200 -0.242716 4.980390 -90.103200 0.340907 -73.158900 5.348090 -0.000007 -0.000001 -54.754300 34.155500 -22.906400 24.328600 0.000019 0.000005 5.020960 5.848790 -40.766800 22.291600 -0.000001 0.000005 7.582400 5.675740 -18.408400 12.994500 -0.242716 -4.980390 88.827700 3.774260 -72.730600 -5.348130 -0.000001 -0.000004 -53.368500 39.486300 -21.295200 -24.328900 0.000322 -0.000009 -0.599543 -0.758723 -38.265100 -22.291500 -0.000108 -0.000004 11.144900 5.667860 -17.056500 -2.192480 -6.469440 -0.000000 -170.100000 -17.939300 -4.468850 39.081100 -0.000007 -0.000012 -0.160032 0.309604 27.334300 40.985400 -0.000006 -0.000013 -4.711340 -1.858180 -65.163800 11.754300 -0.000000 0.000003 -0.000068 -0.000737 -16.606000 -2.192510 6.469440 -0.000001 175.561000 21.826100 176.449000 -39.081100 -0.002282 -0.040193 0.048436 -0.096022 25.170400 -40.985400 0.000008 0.000006 0.907763 3.569020 -63.774000 -11.754300 -0.000006 -0.000006 -0.005550 -0.066689 -19.286900
0.000000 0.000000 0.000000 0.000000 0.000000 -0.000000 -0.201677 91.686000 -3.360020 87.390200 -3.421380 6.020690 15.735700 0.000005 -0.000001 85.120700 82.135200 -84.338400 8.984550 -0.406207 -0.000000 7.917730 -1.331250 1.655080 16.377300 -0.000001 -0.000001 5.214600 -0.421878 0.239680 6.456720 -0.000001 -0.000000 -0.526031 0.940420 -2.610510 12.994200 -0.242716 4.980390 -89.936700 -0.204748 -72.814900 5.348090 -0.000007 -0.000001 -50.851600 30.872500 -25.930900 24.328600 0.000019 0.000005 4.683080 4.883370 -43.899800 22.291600 -0.000001 0.000005 8.686370 5.677950 -18.939600 12.994500 -0.242716 -4.980390 89.024600 3.110510 -72.580000 -5.348130 -0.000001 -0.000004 -51.023700 43.454200 -20.638600 -24.328900 0.000322 -0.000009 -0.625937 -0.679104 -42.621500 -22.291500 -0.000108 -0.000004 14.147000 5.672960 -17.859800 -2.192480 -6.469440 -0.000000 -170.035000 -17.904100 -4.378700 39.081100 -0.000007 -0.000012 -0.163378 0.316129 27.330500 40.985400 -0.000006 -0.000013 -4.716090 -1.738820 -65.154800 11.754300 -0.000000 0.000003 -0.000067 -0.000733 -16.605900 -2.192510 6.469440 -0.000001 175.522000 21.954300 176.562000 -39.081100 -0.002282 -0.040193 0.047874 -0.094686 25.203100 -40.985400 0.000008 0.000006 0.899538 3.591170 -63.804700 -11.754300 -0.000006 -0.000006 -0.005499 -0.066210 -19.267400
0.000000 0.000000 0.000000 0.000000 0.000000 -0.000000 -0.276601 91.680500 -3.317120 87.355500 -3.066320 6.070950 15.735700 0.000005 -0.000001 84.744800 82.333900 -83.820000 8.984550 -0.406207 -0.000000 7.515390 -1.400910 1.939760 16.377300 -0.000001 -0.000001 5.782790 -0.350987 -0.044563 6.456720 -0.000001 -0.000000 -0.355905 0.834094 -2.847560 12.994200 -0.242716 4.980390 -89.697700 -0.959210 -72.507900 5.348090 -0.000007 -0.000001 -46.883800 26.199100 -29.144600 24.328600 0.000019 0.000005 4.293700 3.908210 -47.767400 22.291600 -0.000001 0.000005 9.975720 5.679860 -19.522500 12.994500 -0.242716 -4.980390 89.226500 2.413710 -72.224900 -5.348130 -0.000001 -0.000004 -47.950800 47.972200 -19.629600 -24.328900 0.000322 -0.000009 0.368201 0.325013 -48.604000 -22.291500 -0.000108 -0.000004 16.375600 5.675930 -18.453900 -2.192480 -6.469440 -0.000000 -169.935000 -17.821100 -4.382790 39.081100 -0.000007 -0.000012 -0.162548 0.314243 27.351200 40.985400 -0.000006 -0.000013 -4.711560 -1.485240 -65.125100 11.754300 -0.000000 0.000003 -0.000065 -0.000706 -16.604900 -2.192510 6.469440 -0.000001 175.512000 22.242300 176.730000 -39.081100 -0.002282 -0.040193 0.047917 -0.094821 25.193000 -40.985400 0.000008 0.000006 0.925229 3.563520 -63.903700 -11.754300 -0.000006 -0.000006 -0.005491 -0.066143 -19.264600
0.000000 0.000000 0.000000 0.000000 0.000000 -0.000000 -0.337376 91.681200 -3.252500 87.312600 -2.669770 6.084110 15.735700 0.000005 -0.000001 84.202200 82.580900 -83.114200 8.984550 -0.406207 -0.000000 7.013370 -1.500920 2.265780 16.377300 -0.000001 -0.000001 6.311950 -0.260937 -0.315928 6.456720 -0.000001 -0.000000 -0.255401 0.814064 -3.054330 12.994200 -0.242716 4.980390 -89.355500 -2.000070 -72.136200 5.348090 -0.000007 -0.000001 -43.141900 20.442600 -32.453100 24.328600 0.000019 0.000005 3.467960 2.721250 -51.928100 22.291600 -0.000001 0.000005 12.101400 5.681110 -20.071200 12.994500 -0.242716 -4.980390 89.501900 1.517400 -71.824700 -5.348130 -0.000001 -0.000004 -44.870700 52.365700 -18.236100 -24.328900 0.000322 -0.000009 2.752070 1.886220 -55.588700 -22.291500 -0.000108 -0.000004 17.360200 5.680500 -19.756400 -2.192480 -6.469440 -0.000000 -169.871000 -17.641500 -4.407650 39.081100 -0.000007 -0.000012 -0.160868 0.311064 27.346200 40.985400 -0.000006 -0.000013 -4.695960 -1.246440 -65.109100 11.754300 -0.000000 0.000003 -0.000067 -0.000728 -16.605700 -2.192510 6.469440 -0.000001 175.523000 22.578300 176.881000 -39.081100 -0.002282 -0.040193 0.047920 -0.095000 25.152900 -40.985400 0.000008 0.000006 0.945624 3.463430 -63.973900 -11.754300 -0.000006 -0.000006 -0.005603 -0.067190 -19.307300
0.000000 0.000000 0.000000 0.000000 0.000000 -0.000000 -0.387117 91.682000 -3.155020 87.281400 -2.305640 6.122130 15.735700 0.000005 -0.000001 83.712700 82.836800 -82.448900 8.984550 -0.406207 -0.000000 6.494710 -1.578190 2.614330 16.377300 -0.000001 -0.000001 6.617940 -0.214984 -0.526017 6.456720 -0.000001 -0.000000 0.054358 0.897485 -3.206370 12.994200 -0.242716 4.980390 -89.012500 -2.989310 -71.710500 5.348090 -0.000007 -0.000001 -39.515900 13.769200 -35.852000 24.328600 0.000019 0.000005 0.962865 0.650766 -55.985100 22.291600 -0.000001 0.000005 13.688300 5.681380 -20.253300 12.994500 -0.242716 -4.980390 89.849400 0.445439 -71.314400 -5.348130 -0.000001 -0.000004 -42.156900 56.477800 -16.408000 -24.328900 0.000322 -0.000009 7.577120 3.807200 -63.465700 -22.291500 -0.000108 -0.000004 18.066200 5.681980 -20.889500 -2.192480 -6.469440 -0.000000 -169.784000 -17.536800 -4.357080 39.081100 -0.000007 -0.000012 -0.163135 0.315855 27.315900 40.985400 -0.000006 -0.000013 -4.673460 -0.931181 -65.103200 11.754300 -0.000000 0.000003 -0.000076 -0.000813 -16.608900 -2.192510 6.469440 -0.000001 175.490000 22.839900 177.080000 -39.081100 -0.002282 -0.040193 0.046598 -0.092369 25.108900 -40.985400 0.000008 0.000006 0.846665 3.356890 -64.021700 -11.754300 -0.000006 -0.000006 -0.005475 -0.065987 -19.258300
